<?xml version="1.0" encoding="utf-8"?>
<!-- Generator: Adobe Illustrator 18.0.0, SVG Export Plug-In . SVG Version: 6.00 Build 0)  -->
<!DOCTYPE svg PUBLIC "-//W3C//DTD SVG 1.1//EN" "http://www.w3.org/Graphics/SVG/1.1/DTD/svg11.dtd">
<svg version="1.1" id="Layer_1" xmlns="http://www.w3.org/2000/svg" xmlns:xlink="http://www.w3.org/1999/xlink" x="0px" y="0px"
	 width="1400px" height="980px" viewBox="0 0 1400 980" enable-background="new 0 0 1400 980" xml:space="preserve">
<g>
	<path fill="#595959" d="M537.3,214.4h-22.2H493c-8.9,0-15.9,7.7-15,16.5l5.3,55.7c0.3,3.4,1.8,6.7,4.2,9.1l23,23.4l-4.6,191
		c-0.1,5.2,4.1,9.5,9.3,9.5h0c5.2,0,9.4-4.3,9.3-9.5l-4.6-191l23-23.4c2.4-2.5,3.9-5.7,4.2-9.1l5.3-55.7
		C553.1,222,546.2,214.4,537.3,214.4z M496.8,281.4c-1.5,0-2.7-1.1-2.8-2.6l-4-38.8c-0.2-1.7,1.2-3.2,2.8-3.2c1.5,0,2.7,1.1,2.8,2.6
		l4,38.8C499.8,279.9,498.5,281.4,496.8,281.4z M512.2,239.8c0-1.6,1.3-2.9,2.9-2.9s2.9,1.3,2.9,2.9v38.7c0,1.6-1.3,2.9-2.9,2.9
		s-2.9-1.3-2.9-2.9V239.8z M520.7,506.3c0,3.1-2.5,5.5-5.5,5.5c-3.1,0-5.5-2.5-5.5-5.5c0-3.1,2.5-5.5,5.5-5.5
		C518.2,500.8,520.7,503.3,520.7,506.3z M536.3,278.8c-0.2,1.5-1.4,2.6-2.8,2.6h0c-1.7,0-3-1.5-2.8-3.2l4-38.8
		c0.2-1.5,1.4-2.6,2.8-2.6c1.7,0,3,1.5,2.8,3.2L536.3,278.8z"/>
	<path fill="#595959" d="M375.2,215.3c-4.6-2.7-10.2-2.7-14.8,0c-17.6,10.4-23.9,36.1-23.6,52.5c0.3,18.5,13.7,28.7,20.1,31
		c6.4,2.2,6.1,7.7,6.1,7.7h0.1L358.5,510c-0.1,5.2,4.1,9.5,9.3,9.5h0c5.2,0,9.4-4.3,9.3-9.5l-4.5-203.6h0.1c0,0-0.3-5.5,6.1-7.7
		c6.4-2.2,19.8-12.5,20.1-31C399.1,251.4,392.8,225.7,375.2,215.3z M367.8,511.9c-3.1,0-5.5-2.5-5.5-5.5c0-3.1,2.5-5.5,5.5-5.5
		c3.1,0,5.5,2.5,5.5,5.5C373.3,509.4,370.8,511.9,367.8,511.9z"/>
	<path fill="#595959" d="M674.6,214.4L674.6,214.4c-20.4,0-37.8,37.6-35.5,62.9c2.3,25.3,16.2,32.7,22.5,35.2c6.3,2.5,8,5.8,8,5.8
		L665.3,510c-0.1,5.2,4.1,9.5,9.3,9.5h0c5.2,0,9.4-4.3,9.3-9.5l-4.3-191.7c0,0,1.6-3.3,8-5.8c6.3-2.5,20.3-9.9,22.5-35.2
		C712.4,252,695.1,214.4,674.6,214.4z M660.6,289.1c0,2-1.6,3.5-3.5,3.5c-2,0-3.5-1.6-3.5-3.5v-48.7c0-2,1.6-3.5,3.5-3.5
		c2,0,3.5,1.6,3.5,3.5V289.1z M671.1,240.4c0-2,1.6-3.5,3.5-3.5h0c2,0,3.5,1.6,3.5,3.5v48.7c0,2-1.6,3.5-3.5,3.5h0
		c-2,0-3.5-1.6-3.5-3.5V240.4z M680.2,506.3c0,3.1-2.5,5.5-5.5,5.5c-3.1,0-5.5-2.5-5.5-5.5c0-3.1,2.5-5.5,5.5-5.5
		C677.7,500.8,680.2,503.3,680.2,506.3z M695.7,289.1c0,2-1.6,3.5-3.5,3.5c-2,0-3.5-1.6-3.5-3.5v-48.7c0-2,1.6-3.5,3.5-3.5
		c2,0,3.5,1.6,3.5,3.5V289.1z"/>
	<g>
		<path fill="#595959" d="M239.2,455.8H197c-3.9,0-7-3.1-7-7V253.2c0-3.9,3.1-7,7-7h42.1c3.9,0,7,3.1,7,7v195.6
			C246.2,452.7,243,455.8,239.2,455.8z"/>
		<path fill="#595959" d="M233.8,246.2V239c0-3.2-2.6-5.8-5.8-5.8h-19.8c-3.2,0-5.8,2.6-5.8,5.8v7.2H233.8z"/>
		<path fill="#595959" d="M223,233.1c1.1-10.4,4-37.5,4-43.1c0-2.4-1.1-4.3-2.5-5.6c-3.5-3.3-9.2-3.3-12.7,0
			c-1.4,1.3-2.5,3.1-2.5,5.6c0,5.6,2.9,32.7,4,43.1H223z"/>
		<path fill="#595959" d="M202.3,455.8v7.2c0,3.2,2.6,5.8,5.8,5.8H228c3.2,0,5.8-2.6,5.8-5.8v-7.2H202.3z"/>
		<path fill="#595959" d="M213.2,468.8c-1.1,10.4-4,37.5-4,43.1c0,2.4,1.1,4.3,2.5,5.6c3.5,3.3,9.2,3.3,12.7,0
			c1.4-1.3,2.5-3.1,2.5-5.6c0-5.6-2.9-32.7-4-43.1H213.2z"/>
	</g>
	<path fill="#595959" d="M833.6,215.9c-26.2,1.8-47.2,23.2-48.6,49.4c-1.4,26.3,16.5,48.6,40.8,54.1c3.9,0.9,6.6,4.4,6.6,8.4
		L828,509.3c-0.1,5.2,4.1,9.5,9.3,9.5h0c5.2,0,9.4-4.3,9.3-9.5l-4.3-181.5c-0.1-4,2.6-7.6,6.5-8.4c23.4-5.2,41-26.2,41-51.2
		C889.8,238,864.3,213.8,833.6,215.9z M857.3,230.7c3.4,0,6.1,2.7,6.1,6.1c0,3.4-2.7,6.1-6.1,6.1c-3.4,0-6.1-2.7-6.1-6.1
		C851.2,233.4,853.9,230.7,857.3,230.7z M863.5,266.9c0,3.4-2.7,6.1-6.1,6.1c-3.4,0-6.1-2.7-6.1-6.1c0-3.4,2.7-6.1,6.1-6.1
		C860.7,260.8,863.5,263.5,863.5,266.9z M853,251.9c0,3.4-2.7,6.1-6.1,6.1c-3.4,0-6.1-2.7-6.1-6.1c0-3.4,2.7-6.1,6.1-6.1
		C850.2,245.7,853,248.5,853,251.9z M843.5,266.9c0,3.4-2.7,6.1-6.1,6.1c-3.4,0-6.1-2.7-6.1-6.1c0-3.4,2.7-6.1,6.1-6.1
		C840.8,260.8,843.5,263.5,843.5,266.9z M837.4,230.7c3.4,0,6.1,2.7,6.1,6.1c0,3.4-2.7,6.1-6.1,6.1c-3.4,0-6.1-2.7-6.1-6.1
		C831.2,233.4,834,230.7,837.4,230.7z M833,251.9c0,3.4-2.7,6.1-6.1,6.1c-3.4,0-6.1-2.7-6.1-6.1c0-3.4,2.7-6.1,6.1-6.1
		C830.3,245.7,833,248.5,833,251.9z M823.6,266.9c0,3.4-2.7,6.1-6.1,6.1c-3.4,0-6.1-2.7-6.1-6.1c0-3.4,2.7-6.1,6.1-6.1
		C820.8,260.8,823.6,263.5,823.6,266.9z M817.4,230.7c3.4,0,6.1,2.7,6.1,6.1c0,3.4-2.7,6.1-6.1,6.1c-3.4,0-6.1-2.7-6.1-6.1
		C811.3,233.4,814.1,230.7,817.4,230.7z M807,245.7c3.4,0,6.1,2.7,6.1,6.1c0,3.4-2.7,6.1-6.1,6.1c-3.4,0-6.1-2.7-6.1-6.1
		C800.8,248.5,803.6,245.7,807,245.7z M800.8,282c0-3.4,2.7-6.1,6.1-6.1c3.4,0,6.1,2.7,6.1,6.1c0,3.4-2.7,6.1-6.1,6.1
		C803.6,288.1,800.8,285.4,800.8,282z M817.4,303.2c-3.4,0-6.1-2.7-6.1-6.1c0-3.4,2.7-6.1,6.1-6.1c3.4,0,6.1,2.7,6.1,6.1
		C823.6,300.4,820.8,303.2,817.4,303.2z M826.9,288.1c-3.4,0-6.1-2.7-6.1-6.1c0-3.4,2.7-6.1,6.1-6.1c3.4,0,6.1,2.7,6.1,6.1
		C833,285.4,830.3,288.1,826.9,288.1z M842.9,505.6c0,3.1-2.5,5.5-5.5,5.5c-3.1,0-5.5-2.5-5.5-5.5c0-3.1,2.5-5.5,5.5-5.5
		C840.4,500.1,842.9,502.6,842.9,505.6z M837.4,303.2c-3.4,0-6.1-2.7-6.1-6.1c0-3.4,2.7-6.1,6.1-6.1c3.4,0,6.1,2.7,6.1,6.1
		C843.5,300.4,840.8,303.2,837.4,303.2z M846.9,288.1c-3.4,0-6.1-2.7-6.1-6.1c0-3.4,2.7-6.1,6.1-6.1c3.4,0,6.1,2.7,6.1,6.1
		C853,285.4,850.2,288.1,846.9,288.1z M857.3,303.2c-3.4,0-6.1-2.7-6.1-6.1c0-3.4,2.7-6.1,6.1-6.1c3.4,0,6.1,2.7,6.1,6.1
		C863.5,300.4,860.7,303.2,857.3,303.2z M866.8,288.1c-3.4,0-6.1-2.7-6.1-6.1c0-3.4,2.7-6.1,6.1-6.1c3.4,0,6.1,2.7,6.1,6.1
		C872.9,285.4,870.2,288.1,866.8,288.1z M866.8,258c-3.4,0-6.1-2.7-6.1-6.1c0-3.4,2.7-6.1,6.1-6.1c3.4,0,6.1,2.7,6.1,6.1
		C872.9,255.3,870.2,258,866.8,258z"/>
	<g>
		<path fill="#595959" d="M994.3,520L994.3,520c-4.8,0-8.7-3.9-8.7-8.7v-92.9c0-4.4,3.5-7.9,7.9-7.9h1.6c4.4,0,7.9,3.5,7.9,7.9v92.9
			C1003,516.1,999.1,520,994.3,520z"/>
		<path fill="#595959" d="M1028.5,312.3c-2.2-16.4-9.2-28.1-21.1-34.9c-4-2.3-8.4-3.4-12.8-3.5l-1.3-0.8v0.9
			c-4.2,0.2-8.4,1.3-12.1,3.4c-11.8,6.8-18.9,18.5-21.1,34.9c-1.6,12.3,0.1,25.3,5.1,37.5l26.2,64.6l1.9-0.8L967.1,349
			c-4.8-11.9-6.5-24.5-5-36.5c2.1-15.7,8.8-27,20.1-33.4c2.7-1.6,5.7-2.5,8.7-3c-24,18.8-15.9,59-15.8,59.4l15.8,70.7l1.9-0.4
			L977,335.2c-0.1-0.4-8.2-40.7,16.3-58.3V403h2V276.8c24.5,17.6,16.4,57.9,16.3,58.3l-15.8,70.7l1.9,0.4l15.8-70.7
			c0.1-0.4,8.2-40.6-15.8-59.4c3,0.4,6,1.4,8.7,3c11.2,6.4,18,17.7,20.1,33.4c1.6,12-0.1,24.6-5,36.5l-26.2,64.6l1.9,0.8l26.2-64.6
			C1028.3,337.6,1030.1,324.6,1028.5,312.3z"/>
		<path fill="#595959" d="M1028.5,312.3c-2.2-16.4-9.2-28.1-21.1-34.9c-4-2.3-8.4-3.4-12.8-3.5l-1.3-0.8v0.9
			c-4.2,0.2-8.4,1.3-12.1,3.4c-11.8,6.8-18.9,18.5-21.1,34.9c-1.6,12.3,0.1,25.3,5.1,37.5l26.2,64.6l1.9-0.8L967.1,349
			c-4.8-11.9-6.5-24.5-5-36.5c2.1-15.7,8.8-27,20.1-33.4c2.7-1.6,5.7-2.5,8.7-3c-24,18.8-15.9,59-15.8,59.4l15.8,70.7l1.9-0.4
			L977,335.2c-0.1-0.4-8.2-40.7,16.3-58.3V403h2V276.8c24.5,17.6,16.4,57.9,16.3,58.3l-15.8,70.7l1.9,0.4l15.8-70.7
			c0.1-0.4,8.2-40.6-15.8-59.4c3,0.4,6,1.4,8.7,3c11.2,6.4,18,17.7,20.1,33.4c1.6,12-0.1,24.6-5,36.5l-26.2,64.6l1.9,0.8l26.2-64.6
			C1028.3,337.6,1030.1,324.6,1028.5,312.3z"/>
		<polygon fill="#595959" points="996.2,411.4 1000.7,400.2 999.1,400.2 997.8,406.3 995.8,405.8 997.1,400.2 995.3,400.2 
			995.3,403 993.3,403 993.3,400.2 991.5,400.2 992.8,405.8 990.8,406.3 989.5,400.2 987.9,400.2 992.4,411.3 		"/>
	</g>
	<path fill="#595959" d="M1126.8,333.1L1126.8,333.1c-0.9,0-1.6,0.7-1.6,1.6v43.6c0,0.8-0.6,1.4-1.4,1.4s-1.4-0.6-1.4-1.4v-43.6
		c0-0.9-0.7-1.6-1.6-1.6c-0.9,0-1.6,0.7-1.6,1.6v43.6c0,0.8-0.6,1.4-1.4,1.4s-1.4-0.6-1.4-1.4v-43.6c0-0.9-0.7-1.6-1.6-1.6
		c-0.9,0-1.6,0.7-1.6,1.6v43.6c0,0.8-0.6,1.4-1.4,1.4s-1.4-0.6-1.4-1.4v-43.6c0-0.9-0.7-1.6-1.6-1.6h0c-0.9,0-1.6,0.7-1.6,1.6v54.4
		c0,3.4,1.1,6.8,3.3,9.5l2.8,3.6c0.9,1.2,1.4,2.6,1.3,4.1l-3.9,105.8c-0.1,3.9,2.7,7.5,6.6,7.8c4.4,0.4,8.1-3.2,8-7.5l-3.9-106.2
		c-0.1-1.5,0.4-2.9,1.3-4.1l2.8-3.6c2.1-2.7,3.3-6.1,3.3-9.5v-54.4C1128.4,333.8,1127.7,333.1,1126.8,333.1z"/>
	<path fill="#595959" d="M1215.1,336.4c-4.5-3.2-10.6-3.2-15.2,0c-13.7,9.6-18,34.6-15.8,45c2.5,12.1,9.8,17.5,13.9,19.1
		c1,0.4,2,0.8,2.7,1.2c2.2,1.1,3.4,3.4,3.3,5.8l-3.9,104.5c-0.1,3.9,2.7,7.5,6.6,7.8c4.4,0.4,8.1-3.2,8-7.5l-3.9-104.8
		c-0.1-2.4,1.2-4.7,3.3-5.8c0.8-0.4,1.7-0.8,2.7-1.2c4.1-1.6,11.4-7,13.9-19.1C1233.1,371.1,1228.8,346,1215.1,336.4z"/>
	<g>
		<path fill="#666666" d="M672.3,715.3c-15.8,1.1-32.9,16.9-32.9,16.9l3.9-25.7H459.2l3.9,25.7c0,0-17-15.8-32.9-16.9
			s-17.5,4.9-14.8,10.9c0,0,14.8-3.8,23.3,8.7c7.4,11.1,9.2,19.1,27.7,19.4l1.9,12.5c2.3,14.9,15.1,25.9,30.2,25.9H604
			c15.1,0,27.9-11,30.2-25.9l1.9-12.5c18.5-0.3,20.3-8.4,27.7-19.4c8.4-12.6,23.3-8.7,23.3-8.7C689.8,720.3,688.1,714.3,672.3,715.3
			z"/>
		<path fill="#FBB03B" d="M570.2,661.4l-2.1-12.3c-2.3-13.6-15.3-22.7-28.8-20.4c-13.6,2.3-22.7,15.3-20.4,28.8l2.1,12.3
			c-19.7,5.9-46.6,17-61.8,36.8l90.7-15.5l90.7-15.5C619.8,661.9,590.7,660.4,570.2,661.4z M522.7,669.3
			C522.7,669.3,522.7,669.3,522.7,669.3C522.7,669.3,522.7,669.3,522.7,669.3z M545.3,664.1c0,0-7,1-17.3,3.7c0,0,0,0,0,0l-2-11.5
			c-1.6-9.6,4.8-18.7,14.4-20.3s18.7,4.8,20.3,14.4l2,11.5C552.2,662.8,545.3,664.1,545.3,664.1z"/>
		<path fill="#B3B3B3" d="M666,700.1c0,0-18.4-19.7-15.5-47c2.9-27.3,32.4-46.1,19.1-92.3c0,0,20.1,38.5,3.4,74.5
			C656.4,671.4,657.2,683.2,666,700.1z"/>
		<path fill="#B3B3B3" d="M635.2,646c0,0-13-14-10.9-33.3c2.1-19.3,22.9-32.6,13.5-65.3c0,0,14.2,27.2,2.4,52.7
			C628.5,625.7,629,634,635.2,646z"/>
		<path fill="#FBB03B" d="M430.2,715.3c-15.8-1.1-17.5,4.9-14.8,10.9c0,0,14.8-3.8,23.3,8.7c7.4,11.1,9.2,19.1,27.7,19.4l-3.4-22.2
			C463.1,732.3,446.1,716.4,430.2,715.3z"/>
		<path fill="#FBB03B" d="M663.8,735c8.4-12.6,23.3-8.7,23.3-8.7c2.7-6,1.1-12-14.8-10.9c-15.8,1.1-32.9,16.9-32.9,16.9l-3.4,22.2
			C654.6,754.2,656.3,746.1,663.8,735z"/>
	</g>
	<g>
		<path fill="#B3B3B3" d="M143.8,689.1c0,0-9.7-10.4-8.2-24.9c1.6-14.5,17.1-24.4,10.1-48.8c0,0,10.6,20.4,1.8,39.4
			C138.8,673.9,139.1,680.2,143.8,689.1z"/>
		<path fill="#B3B3B3" d="M127,654.9c0,0-11.9-12.8-10-30.4c1.9-17.7,20.9-29.8,12.4-59.6c0,0,13,24.9,2.2,48.2S121.3,644,127,654.9
			z"/>
		<path fill="#FBB03B" d="M264.4,671.5v-8.3h5.3c3,0,5.5-2.5,5.5-5.5s-2.5-5.5-5.5-5.5h-21.2c-3,0-5.5,2.5-5.5,5.5s2.5,5.5,5.5,5.5
			h5.3v8.3c-32.4,1.5-45.2,16.6-45.2,16.6h50.4h50.4C309.5,688.1,296.7,673,264.4,671.5z"/>
		<path fill="#666666" d="M309.5,697.2v-9.1h-50.4h-50.4v9.1c-10.3,5.9-18.6,12.7-25.3,19.9l-25.5-18.9L130.3,715l25.2,20
			c6,4.7,8.3,12.6,6,19.8c-6.1,19.1-5.1,34.2-5.1,34.2h102.7h102.7C361.8,789,365.8,729.1,309.5,697.2z"/>
		<path fill="#FBB03B" d="M183.3,717.1c0.9-1,1.9-2,2.9-3l0,0c0,0-1.6-15.8,6.4-33.5c3.4-7.6,8.3-17.4,16-26.5
			c25.5-30.2,72.4-30.2,97.9,0c7.7,9.1,12.6,18.9,16,26.5c6,13.4,6.6,25.7,6.5,30.9c7.4,6.8,13.1,14.1,17.5,21.4
			c3.9-3,5.5-8.2,3.7-12.9l-4.8-12.4c0,0-16.4-48-37.8-68.6c-8.7-8.4-18.7-13.7-27.4-17c-14.6-5.6-30.8-5.6-45.5,0
			c-8.7,3.3-18.6,8.6-27.4,17c-20.5,19.8-36.3,64.5-37.7,68.4L183.3,717.1z"/>
		<path fill="#FBB03B" d="M363.2,798H155c-3.2,0-5.7-2.6-5.7-5.7l0,0c0-3.2,2.6-5.7,5.7-5.7h208.2c3.2,0,5.7,2.6,5.7,5.7l0,0
			C368.9,795.5,366.3,798,363.2,798z"/>
	</g>
	<g>
		<path fill="#666666" d="M964.3,793.6h-109c-17.5,0-33.3-10.2-40.5-26.2l-6.3-13.9H1011l-6.3,13.9
			C997.6,783.3,981.7,793.6,964.3,793.6z"/>
		<path fill="#666666" d="M809.5,760.3h13v13.2h-13c-2,0-3.6-1.6-3.6-3.6V764C805.9,762,807.5,760.3,809.5,760.3z"/>
		<path fill="#FBB03B" d="M722.2,758.7c-4.7-0.3-8.8,3.5-8.8,8.2v0l0,0c0,4.8,4,8.5,8.8,8.2l83.7-4.3v-3.9V763L722.2,758.7z"/>
		<path fill="#FBB03B" d="M916.7,702.5l-0.1-0.3c-1.4-7.8-8.9-13-16.8-11.6c-7.8,1.4-13,8.9-11.6,16.8l0.1,0.3
			c-74.8,16.9-79.9,45.8-79.9,45.8l199.3-36.5C1007.7,717,992.6,691.8,916.7,702.5z"/>
		<path fill="#B3B3B3" d="M1025.7,736.1c0,0-11-11.8-9.3-28.2c1.8-16.3,19.4-27.6,11.5-55.2c0,0,12,23,2,44.6
			C1020,719,1020.4,726,1025.7,736.1z"/>
		<path fill="#B3B3B3" d="M1007.3,703.7c0,0-7.8-8.4-6.5-19.9c1.2-11.6,13.7-19.5,8.1-39.1c0,0,8.5,16.3,1.4,31.6
			C1003.2,691.6,1003.5,696.6,1007.3,703.7z"/>
	</g>
	<g>
		<path fill="#B3B3B3" d="M1258.8,683.6c0,0-11-11.8-9.3-28.2c1.8-16.3,19.4-27.6,11.5-55.2c0,0,12,23,2,44.6
			C1253.1,666.5,1253.5,673.5,1258.8,683.6z"/>
		<path fill="#B3B3B3" d="M1240.4,651.2c0,0-7.8-8.4-6.5-19.9s13.7-19.5,8.1-39.1c0,0,8.5,16.3,1.4,31.6
			C1236.3,639.1,1236.7,644.1,1240.4,651.2z"/>
		<path fill="#666666" d="M1212.5,790.6h-74.3c-13.6,0-25-10.2-26.4-23.7l-7.7-70h142.5l-7.7,70
			C1237.4,780.4,1226,790.6,1212.5,790.6z"/>
		<path fill="#FBB03B" d="M1176.4,655.2l-1.7-9.4l7.5-1.4c2.6-0.5,4.4-3,3.9-5.6c-0.5-2.6-3-4.4-5.6-3.9l-29.5,5.3
			c-2.6,0.5-4.4,3-3.9,5.6s3,4.4,5.6,3.9l7.5-1.4l1.7,9.4c-45.1,10.7-57.9,39.1-57.9,39.1l140.3-25.2
			C1244.3,671.7,1222.4,649.5,1176.4,655.2z"/>
		<path fill="#FBB03B" d="M1105.4,708.7c-1.6-1.1-6.2-7-18.3-10.1c-12.1-3.2-18.6,2.7-19.4,7.1c-0.8,4.5,5.2,6,11.5,5.5
			c6.3-0.5,22.6,3.3,28,12.8L1105.4,708.7z"/>
		<path fill="#FBB03B" d="M1245.3,708.7c1.6-1.1,6.2-7,18.3-10.1c12.1-3.2,18.6,2.7,19.4,7.1c0.8,4.5-5.2,6-11.5,5.5
			c-6.3-0.5-22.6,3.3-28,12.8L1245.3,708.7z"/>
	</g>
</g>
</svg>
