<?xml version="1.0" encoding="utf-8"?>
<!-- Generator: Adobe Illustrator 21.1.0, SVG Export Plug-In . SVG Version: 6.00 Build 0)  -->
<svg version="1.1" id="Camada_1" xmlns="http://www.w3.org/2000/svg" xmlns:xlink="http://www.w3.org/1999/xlink" x="0px" y="0px"
	 viewBox="0 0 800 800" style="enable-background:new 0 0 800 800;" xml:space="preserve">
<style type="text/css">
	.st0{fill:#010101;}
	.st1{fill:#010101;stroke:#FFFFFF;stroke-width:0.75;stroke-miterlimit:10;}
	.st2{fill:none;}
	.st3{fill:#080000;}
	.st4{font-family:'Russell-Regular';}
	.st5{font-size:176px;}
	.st6{font-family:'FuturaBT-Book';}
	.st7{font-size:89px;}
</style>
<g>
	<g>
		<g>
			<g>
				<path class="st0" d="M344.1,642.3c-2.7,2.9-5.5,1.4-6.6,0.2c-1-1.2-1.9-3.9,0.3-5.9c3.4-3,8.3-1.4,11,1.5c2,2.1,2.4,6.2,0,10.3
					c-4.2,7.2-18,6.5-23,0.3c-7.9-9.8-2.9-24.1,5.1-30.9c12.9-10.9,36.5-3.8,41.8,11.7c3.4,9.7,2,19.3-2.5,28.3
					c-5.2,10.4-13.7,15.7-24.5,19.1c-0.4,0.1,16.6-1.7,27.6-15.5c14.2-17.9,15.6-46.2-12.4-55c-10.5-3.3-22.4-0.4-30,5.6
					c-7.8,6.2-14.1,17.8-12.9,28.9c1.1,9.4,5.8,16.3,17,18.2c11.2,1.9,20-4,21.2-13.3c1-8.3-6.6-14.8-15.2-13.6
					c-4.8,0.6-8.1,3.7-6.8,8.9c0.8,3.2,3,4.3,6,4.3C343.5,645.5,344.3,642.2,344.1,642.3L344.1,642.3z"/>
			</g>
		</g>
		<g>
			<g>
				<path class="st0" d="M138.7,617.3c-4.9,13.6-1.6,31.8,12.9,41.8c10.9,7.5,23.8,8.8,34.9,2.8c10.5-5.8,16-13.6,15.7-27.8
					c-0.2-9.2-4.9-14.8-10.2-19.2c-6.7-5.5-18.3-5.1-25,0.8c-4.4,3.9-5.7,12-3.6,17.2c2.7,7,14.2,8,17.6,1.2c0.3-0.6-0.2-3-0.8-1.8
					c-3.3,6.3-13.1,3.8-15.9-1.5c-3.3-6.3,5.7-12.1,10.4-13.3c9.6-2.3,21.3,3.1,22.1,13.8c0.9,11.5-8.6,18.9-19,20.8
					c-10,1.8-19.9-3.6-24.6-12.4c-9.4-17.5,5.3-37.5,18.9-47.9c9.9-7.6,18.8-11.1,30.8-14.1c23.9-6,62.6-1.1,62.5-1.1
					C265.5,576.8,162.2,551.6,138.7,617.3z"/>
			</g>
		</g>
		<g>
			<g>
				<path class="st0" d="M296.3,660c-5.6,8-16.3,7.1-21.5,3.2c-17.9-13.3-6.1-35.6,9.3-50.5c16.5-15.9,49-18.8,48.7-18.8
					c-6.1,0.4-25.3-1.2-51.4,13.2c-18.6,10.3-35.8,34.7-25.6,55.2c5.3,10.6,19.2,15.8,29.4,10.7C292.8,669.1,297.1,660.6,296.3,660
					L296.3,660z"/>
			</g>
		</g>
		<g>
			<g>
				<path class="st0" d="M303.6,642c-4.2,5-11.3,4.2-14.8-1.2c-1.4-2.2-2.5-8.9,2.5-15.8c11.8-16.5,30.4-19.6,30.2-19.6
					c-14.6,1.7-33.4,11.9-39.5,25.2c-2.6,5.5-2.2,14.1,3.1,18.1c5.9,4.4,17.1,0.9,18.6-6.3C303.8,642.3,303.9,641.8,303.6,642
					L303.6,642z"/>
			</g>
		</g>
		<g>
			<circle class="st0" cx="393.6" cy="599.5" r="13.6"/>
		</g>
		<g>
			<circle class="st0" cx="393.6" cy="627.4" r="6.8"/>
		</g>
		<g>
			<circle class="st0" cx="365.2" cy="592.7" r="6.8"/>
		</g>
		<g>
			<circle class="st0" cx="344.6" cy="593.9" r="3.2"/>
		</g>
		<g>
			<circle class="st0" cx="331.2" cy="600.8" r="1.9"/>
		</g>
		<g>
			<circle class="st0" cx="393.6" cy="645.6" r="3.9"/>
		</g>
		<g>
			<g>
				
					<ellipse transform="matrix(0.5192 -0.8547 0.8547 0.5192 -419.4664 454.2766)" class="st0" cx="194" cy="599.9" rx="5.8" ry="5.8"/>
			</g>
			<g>
				
					<ellipse transform="matrix(0.5192 -0.8547 0.8547 0.5192 -403.9525 460.4671)" class="st0" cx="207.3" cy="589.2" rx="3.6" ry="3.6"/>
			</g>
			<g>
				
					<ellipse transform="matrix(0.5188 -0.8549 0.8549 0.5188 -393.99 469.7389)" class="st0" cx="220.3" cy="584.9" rx="2.4" ry="2.4"/>
			</g>
		</g>
		<g>
			<path class="st0" d="M393.7,666.4l-7,37.2c0,0-2.4,10.6,7.1,10.6c8.3,0,6.9-10.1,6.9-10.1L393.7,666.4z"/>
		</g>
		<g>
			<path class="st0" d="M385.7,664.1c0,0-10.1,14.1-26.4,20c-16.3,5.8-11.7,15.6-2,13.2C367.1,695,380.7,682.9,385.7,664.1z"/>
		</g>
		<path class="st0" d="M261.5,644.2"/>
		<path class="st0" d="M261.5,644.2"/>
		<path class="st0" d="M277.8,587.2c0,0-54.9-3.2-68.9,39.3C208.9,626.5,194.7,582.2,277.8,587.2z"/>
		<path class="st0" d="M220.2,564.1c0,0-69.9-7.8-90.3,42.5C129.9,606.6,111.9,548.4,220.2,564.1z"/>
		<path class="st0" d="M312.3,590.7c0,0-43.6-4.8-68.8,32.5c-18.4,27.3,0.4,46.5,0.4,46.5s-35.8-17.3-13-51.8
			C254.5,582.3,312.3,590.7,312.3,590.7z"/>
		<g>
			<g>
				<g>
					<path class="st0" d="M444.2,642.5c2.7,2.9,5.5,1.4,6.6,0.2c1-1.2,1.9-3.9-0.3-5.9c-3.4-3-8.3-1.4-11,1.5c-2,2.1-2.4,6.2,0,10.3
						c4.2,7.2,18,6.5,23,0.3c7.9-9.8,2.9-24.1-5.1-30.9c-12.9-10.9-36.5-3.8-41.8,11.7c-3.4,9.7-2,19.3,2.5,28.3
						c5.2,10.4,13.7,15.7,24.5,19.1c0.4,0.1-16.6-1.7-27.6-15.5c-14.2-17.9-15.6-46.2,12.4-55c10.5-3.3,22.4-0.4,30,5.6
						c7.8,6.2,14.1,17.8,12.9,28.9c-1.1,9.4-5.8,16.3-17,18.2c-11.2,1.9-20-4-21.2-13.3c-1-8.3,6.6-14.8,15.2-13.6
						c4.8,0.6,8.1,3.7,6.8,8.9c-0.8,3.2-3,4.3-6,4.3C444.8,645.7,444,642.4,444.2,642.5L444.2,642.5z"/>
				</g>
			</g>
			<g>
				<g>
					<path class="st0" d="M649.6,617.5c4.9,13.6,1.6,31.8-12.9,41.8c-10.9,7.5-23.8,8.8-34.9,2.8c-10.5-5.7-16-13.6-15.7-27.8
						c0.2-9.2,4.9-14.8,10.2-19.2c6.7-5.5,18.3-5.1,25,0.8c4.4,3.9,5.7,12,3.6,17.2c-2.7,7-14.2,8-17.6,1.2c-0.3-0.6,0.2-3,0.8-1.8
						c3.3,6.3,13.1,3.8,15.9-1.5c3.3-6.3-5.7-12.1-10.4-13.3c-9.6-2.3-21.3,3.1-22.1,13.8c-0.9,11.5,8.6,18.9,19,20.8
						c10,1.8,19.9-3.6,24.6-12.4c9.4-17.5-5.3-37.5-18.9-47.9c-9.9-7.6-18.8-11.1-30.8-14.1c-23.9-6-62.6-1.1-62.5-1.1
						C522.8,577,626.1,551.8,649.6,617.5z"/>
				</g>
			</g>
			<g>
				<g>
					<path class="st0" d="M491.9,660.2c5.6,8,16.3,7.1,21.5,3.2c17.9-13.3,6.1-35.6-9.3-50.5c-16.5-15.9-49-18.8-48.7-18.8
						c6.1,0.4,25.3-1.2,51.4,13.2c18.6,10.3,35.8,34.7,25.6,55.2c-5.3,10.6-19.2,15.8-29.4,10.7
						C495.5,669.3,491.2,660.8,491.9,660.2L491.9,660.2z"/>
				</g>
			</g>
			<g>
				<g>
					<path class="st0" d="M484.7,642.2c4.2,5,11.3,4.2,14.8-1.2c1.4-2.2,2.5-8.9-2.5-15.8c-11.8-16.5-30.4-19.6-30.2-19.6
						c14.6,1.7,33.4,11.9,39.5,25.2c2.6,5.5,2.2,14.1-3.1,18.1c-5.9,4.4-17.1,0.9-18.6-6.3C484.5,642.5,484.4,642,484.7,642.2
						L484.7,642.2z"/>
				</g>
			</g>
			<g>
				<circle class="st0" cx="423.1" cy="592.9" r="6.8"/>
			</g>
			<g>
				<circle class="st0" cx="443.7" cy="594.1" r="3.2"/>
			</g>
			<g>
				<circle class="st0" cx="457.1" cy="601" r="1.9"/>
			</g>
			<g>
				<g>
					<path class="st0" d="M597.3,605.1c-2.7,1.7-6.3,0.8-7.9-1.9c-1.7-2.7-0.8-6.3,1.9-7.9c2.7-1.7,6.3-0.8,7.9,1.9
						C600.9,599.9,600,603.4,597.3,605.1z"/>
				</g>
				<g>
					
						<ellipse transform="matrix(0.8547 -0.5191 0.5191 0.8547 -221.575 387.2727)" class="st0" cx="581" cy="589.4" rx="3.6" ry="3.6"/>
				</g>
				<g>
					
						<ellipse transform="matrix(0.855 -0.5187 0.5187 0.855 -221.0955 379.483)" class="st0" cx="568" cy="585.1" rx="2.4" ry="2.4"/>
				</g>
			</g>
			<g>
				<path class="st0" d="M402.6,664.3c0,0,10.1,14.1,26.4,20c16.3,5.8,11.7,15.6,2,13.2C421.2,695.2,407.6,683.1,402.6,664.3z"/>
			</g>
			<path class="st0" d="M526.8,644.4"/>
			<path class="st0" d="M526.8,644.4"/>
			<path class="st0" d="M510.5,587.4c0,0,54.9-3.2,68.9,39.3C579.4,626.7,593.6,582.4,510.5,587.4z"/>
			<path class="st0" d="M568.1,564.3c0,0,69.9-7.8,90.3,42.5C658.4,606.8,676.4,548.6,568.1,564.3z"/>
			<path class="st0" d="M476,590.9c0,0,43.6-4.8,68.8,32.5c18.4,27.3-0.4,46.5-0.4,46.5s35.8-17.3,13-51.8
				C533.8,582.5,476,590.9,476,590.9z"/>
		</g>
	</g>
	<g>
		<g>
			<path class="st0" d="M437,135.8c-12-38-37.3-46-37.3-46l0,0l0,0h0l0,0c0,0-25.3,8-37.3,46c0,0,23.3,3.3,37.3,25.3c0,0,0,0,0,0v0
				v0C413.7,139.1,437,135.8,437,135.8z"/>
		</g>
		<g>
			<g>
				<path class="st0" d="M240.1,117.7c3.4-6.6-6-11.7-11.1-6.4c-5.3,5.5-4.1,13.4,1.8,17.8c6.1,4.5,15.8,2,20.5-3.3
					c5-5.6,5.6-14,2.8-20.8c-7.1-17.1-29.2-14.8-40-3c-15.1,16.4-10.7,40.8-1.4,58.6c3.5,6.6,6.8,11.9,11.9,17.2
					c5.5,5.7,13.7,11.8,21.5,14.3c0.3,0.1,11.9,3,11.8,2.9c-8.7-6.1-28-16.5-35.2-24.2c-7.2-7.7-11.9-15.9-15-26
					c-5.4-17.1-0.8-40.2,17.4-47.8c14.1-5.9,34.5,4.2,28.9,21.7c-2.2,6.8-9.9,10.6-16.6,10.6c-3.7,0-6.9-1.7-9.1-4.5
					c-3.8-4.7-0.8-10.5,3.3-13.2C235.4,109.1,241.8,111.5,240.1,117.7C240.1,117.7,240.1,117.7,240.1,117.7L240.1,117.7z"/>
			</g>
		</g>
		<g>
			<g>
				<path class="st0" d="M347.7,173.5c1,10-6.8,15.4-16.1,14.5c-12.2-1.1-16.2-13.2-12.3-23.7c7.5-20.1,31.9-21.5,46.5-9
					c16.9,14.5,13.5,41.6-4.5,53.5c-15.1,9.9-36,8.5-53,5.5c-26.3-4.7-48.6-18.7-72-30.9c-23.5-12.2-48.9-20.6-75.7-18.2
					c-22.7,2-45.3,12.9-56,33.7c-8.4,16.5-8.4,37.3-0.6,54c8,17,25.3,27,44,25.1c8.2-0.9,16.7-4.8,21.8-11.4
					c5.2-6.7,7.6-17.2,5.7-25.4c-2.1-9.1-10.2-15.5-19.4-16.5c-9.7-1-19.4,5-21.9,14.4c-1.7,6.4,0.6,13.2,5.9,17.1
					c4.7,3.5,12.5,2.5,14.9-1.8c0.5-0.8,0.7-1.8,1-2.7c0-0.1-0.8,3.4-4.5,4.4c-2.8,0.7-6.8,0.6-10.3-2c-1.2-0.9-2.4-2.1-3.6-3.7
					c-3.8-5.2-2.1-12,2.7-15.7c4.8-3.8,11.6-4.4,17.4-3.1c5.3,1.2,9.9,3.8,12.7,8.5c3.6,5.8,2.8,12,0.7,17.2
					c-3.9,9.7-13.1,15.1-23.1,16.5c-21.2,3.1-39.6-10.7-45.8-30.6c-6.7-21.3,1-46.4,18.8-59.8c21.9-16.5,51.7-17.6,77.4-11.3
					c27.6,6.7,50.9,23.6,76.5,35c18.5,8.2,38.9,13.2,59.2,12.3c17.1-0.7,33.9-7.4,41-24c6-14.2,3.2-31.7-8.4-42.2
					c-11.4-10.3-28-12-40.5-1.9c-12,9.7-15.2,29.9-0.3,37.3c11.5,5.6,23.7-2.8,22-15.4C348,172.7,347.6,173.2,347.7,173.5
					L347.7,173.5z"/>
			</g>
		</g>
		<g>
			<g>
				<path class="st0" d="M198.4,208c-1.6-7.5,4.2-11.3,8.8-12.6c8.6-2.3,16.3,3.3,16.9,12.1c0.5,8.1-6.4,14.7-13.8,16.5
					c-7.9,1.9-14.9-0.8-20.6-6.4c-6.5-6.5-6.6-15.8-1.1-22.8c4.3-5.5,12.1-8.8,18.6-10.5c13.9-3.5,26.8,0.7,38.9,7.6
					c0.2,0.1,0.2-0.5,0.1-0.6c-7.5-7.2-16.2-11.7-26.6-12.5c-9.7-0.8-23,0.1-30.7,6.6c-7.4,6.4-9.5,17.5-7,26.7
					c2.7,9.9,12.7,16.2,22.5,16.5c8.9,0.3,17.6-5.2,20.1-13.9c2.2-7.7,0.8-17.4-6.7-21.6c-6.5-3.7-19.6-1-21.2,8.5
					c-1.2,6.8,2.8,12.9,11.1,10.8C207.8,212.4,199.6,214.1,198.4,208z"/>
			</g>
		</g>
		<g>
			<g>
				<path class="st0" d="M178.3,282.9c0.1,17.7-12.6,32.7-26.5,42.4c-14.2,9.9-32.5,14.6-48.8,7.2c-8-3.6-12.4-11.2-12.6-19.8
					c-0.3-11.1,4.1-20.5,15.3-23.7c8.6-2.5,19.4,3.1,19.4,11.5c0,4.5-2.3,16.3-14.8,11.8c-4.7-1.7-5.3-5.9-4.6-8.8
					c0.9-3.3,5.1-4.3,4.6-4.3c-7.5-0.2-8.9,9.4-4.6,13.4c6.4,6,16.4,4.3,19.8-3.6c3.6-8.3,1.2-18.1-6.7-22.3
					c-9.2-4.9-20.9,0-26.3,8.2c-4.1,6.3-4.4,16.8-2.8,24c2.1,9.2,8.5,14.6,17,18c19.6,7.9,41.7-3.3,55.6-17
					C172,310.3,179.5,296.7,178.3,282.9C178.4,282.8,178.3,282.8,178.3,282.9L178.3,282.9z"/>
			</g>
		</g>
		<g>
			<g>
				<path class="st0" d="M177.8,287.1c-1.7,13.7-6.4,26-13.7,37.9c-14.7,23.7-36.5,32-36,31.9c23.2-8.1,33.4-23.4,37.7-29.9
					c8.3-12.6,13.7-28.7,12.8-43.9c0-0.1-0.4-4.4-0.4-4.4c0,0,0,1.7,0.1,2.9C178.2,282.4,178,285.8,177.8,287.1z"/>
			</g>
		</g>
		<g>
			<g>
				<path class="st0" d="M105.4,382.9c1.8-1.5,1.5-3.2,0.2-4.6c-2.5-2.5-5.8-0.8-6.4-0.3c-1.9,1.4-3.1,4.4-2.8,6.8
					c0.5,4.8,5.4,8.7,10.7,8.1c8.6-1,9.4-10.8,7.1-17.4c-3.3-9.5-15-11.1-22.9-8.4c-16.4,5.6-14.6,32.6-5.1,43.1
					c13.7,15.2,41.9,13.7,58.1,5.2c21.3-11.2,32.3-38.9,37.6-66.3c1.1-5.9,2.2-14.7,2.2-22.2c0-0.6-2.4,15.8-8.4,32.9
					c-3.2,9.2-6.3,18.5-11.6,26.7c-10.9,17-27.9,25.7-47.7,27c-9.8,0.7-19.5-1.1-27.3-7.3c-8.3-6.5-10.3-16.2-6.2-25.9
					c3.9-9.3,14.8-12.3,23.8-8.9c7.3,2.8,10.7,12.5,3.7,17.6c-2.7,2-6,2.5-9.4,0.5c-4.1-2.4-4.1-9.2,0.8-11.1
					c1.1-0.4,3.1-0.2,4.1,1.1C107.3,381.5,105.4,382.9,105.4,382.9z"/>
			</g>
		</g>
		<g>
			<g>
				<path class="st0" d="M176.2,360.8c-3.2,9.9-5.5,20.3-10.7,29.5c-5.9,10.4-14.2,19.5-21.1,29.2c-15.2,21.5-28.3,46.7-21.7,73.8
					c4.9,19.9,31.1,29.7,48.7,21.2c19.4-9.4,23.9-40.3,13.3-57.2c-5.5-8.7-16.8-8.8-26.1-7.2c-8.3,1.4-16.4,8.5-19,17.1
					c-2.4,8.2-1.2,19.5,7.8,23.7c15.3,7.3,21.1-7.2,21.1-7.2s-5.5,9.2-15.9,5.6c-6.5-2.3-10.1-7.5-9-14.2
					c1.9-11.3,10.4-16.6,21.2-17.7c5.4-0.5,10.8,0.2,15.2,3.6c6.6,5,7.2,14.6,6.7,22.1c-0.8,12.4-8.7,24-20.7,27.8
					c-10.2,3.3-23,0.7-31.7-5.2c-13.1-8.8-13-27-10.1-40.8c3.1-15.5,12.2-29.4,21.1-42.1c6.9-9.9,14.1-18.5,20-29.1
					c5.3-9.6,10-22.3,12.3-33C177.7,360.5,176.4,360.3,176.2,360.8L176.2,360.8z"/>
			</g>
		</g>
		<g>
			<g>
				<path class="st0" d="M164.5,453.5c6.9,2.7,14.4,4,19.4,10c6.1,7.4,7.9,17.1,6.8,26.4c-1.9,16-12.2,34.1-26.4,42.2
					c-15,8.6-35.4,8.4-50.8,1c-16-7.7-26.9-22.5-30.8-39.6c-0.1-0.3-0.2,0-0.2,0.2c3.2,17.8,14.6,34.5,30.7,43
					c16.9,9,40.8,7.7,56.5-3.4c14.1-10,23.3-30.6,24.6-47.5c1.5-20.1-9-38.4-31-36.1C162.3,449.8,163.7,453.2,164.5,453.5
					L164.5,453.5z"/>
			</g>
		</g>
		<g>
			<circle class="st0" cx="346.1" cy="131.7" r="5.5"/>
		</g>
		<g>
			<circle class="st0" cx="330.9" cy="137.2" r="3.4"/>
		</g>
		<g>
			<circle class="st0" cx="320.9" cy="145.6" r="2.2"/>
		</g>
		<g>
			<g>
				
					<ellipse transform="matrix(0.6687 -0.7435 0.7435 0.6687 -282.2153 232.6097)" class="st0" cx="119.9" cy="433" rx="5.5" ry="5.5"/>
			</g>
			<g>
				
					<ellipse transform="matrix(0.6687 -0.7436 0.7436 0.6687 -295.4153 233.0638)" class="st0" cx="113.8" cy="448" rx="3.4" ry="3.4"/>
			</g>
			<g>
				
					<ellipse transform="matrix(0.6688 -0.7434 0.7434 0.6688 -305.2349 237.0119)" class="st0" cx="113.4" cy="461.1" rx="2.2" ry="2.2"/>
			</g>
		</g>
		<g>
			<g>
				
					<ellipse transform="matrix(0.2581 -0.9661 0.9661 0.2581 -43.7894 301.3461)" class="st0" cx="174.3" cy="179.2" rx="6" ry="6"/>
			</g>
			<g>
				
					<ellipse transform="matrix(0.2581 -0.9661 0.9661 0.2581 -58.3131 285.4358)" class="st0" cx="156.7" cy="180.7" rx="3.7" ry="3.7"/>
			</g>
			<g>
				
					<ellipse transform="matrix(0.2585 -0.966 0.966 0.2585 -73.7937 277.3952)" class="st0" cx="143.8" cy="186.8" rx="2.4" ry="2.4"/>
			</g>
		</g>
		<g>
			<path class="st0" d="M195.4,146.2c0,0-7.1-16.3-3.6-33.7c3.4-17.4-7.5-18.5-10.6-8.7C178.1,113.5,181.6,131.9,195.4,146.2z"/>
		</g>
		<g>
			<path class="st0" d="M188.4,153.8c0,0-20.3-4.7-34-17.6c-12.6-11.9-19.5-1.2-12.2,5.7C149.6,148.7,167.3,154.9,188.4,153.8z"/>
		</g>
		<g>
			<path class="st0" d="M192.4,148.6c0,0-17.9-14.8-25.4-36c-7.5-21.1-20.2-15.2-17.2-2.6C152.7,122.6,168,142,192.4,148.6z"/>
		</g>
		<g>
			<path class="st1" d="M101.4,381.4"/>
		</g>
		<path class="st0" d="M213.7,174.7c-2.9,0-21.8,2.3-29.6,17.2c0,0,14.7-8.9,16.2-9.3c1.6-0.3,12.4-1.8,14.6-1.8
			c2.2,0,8.5,0.7,9.2,0.7s-1.3-1.2-1.7-2.2C221.9,178.3,213.7,174.7,213.7,174.7z"/>
		<path class="st0" d="M128,356.9c0,0,29.6-12.9,40.4-44c0,0,6.6-12,8-14.3c0,0-3.2,24.7-27.7,46C148.8,344.6,137.6,353.9,128,356.9
			z"/>
		<path class="st0" d="M169.1,315.2c0,0-17,23.2-50.4,24.2c0,0,24.1-2.7,36.9-15.5c12.5-12.6,19.1-16.7,19.2-22.5L169.1,315.2z"/>
		<path class="st0" d="M104.8,382.4"/>
		<path class="st0" d="M141.7,159.4c0,0-50.3,14.8-50.9,59.7C90.8,219,62.8,179.6,141.7,159.4z"/>
		<path class="st0" d="M197.6,484.4c0,0,4.2-32.2-10.5-42.7c-9-6.5-19.8-7.1-28.6,1.2C158.5,442.9,194.5,428.7,197.6,484.4z"/>
		<g>
			<g>
				<g>
					<path class="st0" d="M559.9,115.8c-3.4-6.6,6-11.7,11.1-6.4c5.3,5.5,4.1,13.4-1.8,17.8c-6.1,4.5-15.8,2-20.5-3.3
						c-5-5.6-5.6-14-2.8-20.8c7.1-17.1,29.2-14.8,40-3c15.1,16.4,10.7,40.8,1.4,58.6c-3.4,6.6-6.8,11.9-11.9,17.2
						c-5.5,5.7-13.7,11.8-21.5,14.3c-0.3,0.1-11.9,3-11.8,2.9c8.7-6.1,28-16.5,35.2-24.2c7.2-7.7,11.9-15.9,15-26
						c5.4-17.1,0.8-40.2-17.4-47.8c-14.1-5.9-34.5,4.2-28.9,21.7c2.2,6.8,9.9,10.6,16.6,10.6c3.7,0,6.9-1.7,9.1-4.5
						c3.8-4.7,0.8-10.5-3.3-13.2C564.6,107.2,558.2,109.6,559.9,115.8C559.9,115.8,559.9,115.9,559.9,115.8L559.9,115.8z"/>
				</g>
			</g>
			<g>
				<g>
					<path class="st0" d="M452.3,171.7c-1,10,6.8,15.4,16.1,14.5c12.2-1.1,16.2-13.2,12.3-23.7c-7.5-20.1-31.9-21.5-46.5-9
						c-16.9,14.5-13.5,41.6,4.5,53.5c15.1,9.9,36,8.5,53,5.5c26.3-4.7,48.6-18.7,72-30.9c23.5-12.2,48.9-20.6,75.7-18.2
						c22.7,2,45.3,12.9,56,33.7c8.4,16.5,8.4,37.3,0.6,54c-8,17-25.3,27-44,25.1c-8.2-0.9-16.7-4.8-21.8-11.4
						c-5.2-6.7-7.6-17.2-5.7-25.4c2.1-9.1,10.2-15.5,19.4-16.5c9.7-1,19.4,5,21.9,14.4c1.7,6.4-0.6,13.2-5.9,17.1
						c-4.7,3.5-12.5,2.5-14.9-1.8c-0.5-0.8-0.7-1.8-1-2.7c0-0.1,0.8,3.4,4.5,4.4c2.8,0.7,6.8,0.6,10.3-2c1.2-0.9,2.4-2.1,3.6-3.7
						c3.8-5.2,2.1-12-2.7-15.7c-4.8-3.8-11.6-4.4-17.4-3.1c-5.3,1.2-9.9,3.8-12.7,8.5c-3.6,5.8-2.8,12-0.7,17.2
						c3.9,9.7,13.1,15.1,23.1,16.5c21.2,3.1,39.6-10.7,45.8-30.6c6.7-21.3-1-46.4-18.8-59.8c-21.9-16.5-51.7-17.6-77.4-11.3
						c-27.6,6.7-50.9,23.6-76.5,35c-18.5,8.2-38.9,13.2-59.2,12.3c-17.1-0.7-33.9-7.4-41-24c-6-14.2-3.2-31.7,8.4-42.2
						c11.4-10.3,28-12,40.5-1.9c12,9.7,15.2,29.9,0.3,37.3c-11.5,5.6-23.7-2.8-22-15.4C452,170.8,452.4,171.3,452.3,171.7
						L452.3,171.7z"/>
				</g>
			</g>
			<g>
				<g>
					<path class="st0" d="M601.6,206.2c1.6-7.5-4.2-11.3-8.8-12.6c-8.6-2.3-16.3,3.3-16.9,12.1c-0.5,8.1,6.4,14.7,13.8,16.5
						c7.9,1.9,14.9-0.8,20.6-6.4c6.5-6.5,6.6-15.8,1.1-22.8c-4.3-5.5-12.1-8.8-18.6-10.5c-13.9-3.5-26.8,0.7-38.9,7.6
						c-0.2,0.1-0.2-0.5-0.1-0.6c7.5-7.2,16.2-11.7,26.6-12.5c9.7-0.8,23,0.1,30.7,6.6c7.4,6.4,9.5,17.5,7,26.7
						c-2.7,9.9-12.7,16.2-22.5,16.5c-8.9,0.3-17.6-5.2-20.1-13.9c-2.2-7.7-0.8-17.4,6.7-21.6c6.5-3.7,19.6-1,21.2,8.5
						c1.2,6.8-2.8,12.9-11.1,10.8C592.2,210.6,600.4,212.2,601.6,206.2z"/>
				</g>
			</g>
			<g>
				<g>
					<path class="st0" d="M621.7,281.1c-0.1,17.7,12.6,32.7,26.5,42.4c14.2,9.9,32.5,14.6,48.8,7.2c8-3.6,12.4-11.2,12.6-19.8
						c0.3-11.1-4.1-20.5-15.3-23.7c-8.6-2.5-19.4,3.1-19.4,11.5c0,4.5,2.3,16.3,14.8,11.8c4.7-1.7,5.3-5.9,4.6-8.8
						c-0.9-3.3-5.1-4.3-4.6-4.3c7.5-0.2,8.9,9.4,4.6,13.4c-6.4,6-16.4,4.3-19.8-3.6c-3.6-8.3-1.2-18.1,6.7-22.3
						c9.2-4.9,20.9,0,26.3,8.2c4.1,6.3,4.4,16.8,2.8,24c-2.1,9.2-8.5,14.6-17,18c-19.6,7.9-41.7-3.3-55.6-17
						C628,308.5,620.5,294.9,621.7,281.1C621.6,280.9,621.7,280.9,621.7,281.1L621.7,281.1z"/>
				</g>
			</g>
			<g>
				<g>
					<path class="st0" d="M622.2,285.3c1.7,13.7,6.4,26,13.7,37.9c14.7,23.7,36.5,32,36,31.9c-23.2-8.1-33.4-23.4-37.7-29.9
						c-8.3-12.6-13.7-28.7-12.8-43.9c0-0.1,0.4-4.4,0.4-4.4s0,1.7-0.1,2.9C621.8,280.5,622,283.9,622.2,285.3z"/>
				</g>
			</g>
			<g>
				<g>
					<path class="st0" d="M694.6,381c-1.8-1.5-1.5-3.2-0.2-4.6c2.5-2.5,5.8-0.8,6.4-0.3c1.9,1.4,3.1,4.4,2.8,6.8
						c-0.5,4.8-5.4,8.7-10.7,8.1c-8.6-1-9.4-10.8-7.1-17.4c3.3-9.5,15-11.1,22.9-8.4c16.4,5.6,14.6,32.6,5.1,43.1
						c-13.7,15.2-41.9,13.7-58.1,5.2c-21.3-11.2-32.3-38.9-37.6-66.3c-1.1-5.9-2.3-14.7-2.2-22.2c0-0.6,2.4,15.8,8.4,32.9
						c3.2,9.2,6.3,18.5,11.6,26.7c10.9,17,27.9,25.7,47.7,27c9.8,0.7,19.5-1.1,27.3-7.3c8.3-6.5,10.3-16.2,6.2-25.9
						c-3.9-9.3-14.8-12.3-23.8-8.9c-7.3,2.8-10.7,12.5-3.7,17.6c2.7,2,6,2.5,9.4,0.5c4.1-2.4,4.1-9.2-0.8-11.1
						c-1.1-0.4-3.1-0.2-4.1,1.1C692.7,379.6,694.6,381,694.6,381z"/>
				</g>
			</g>
			<g>
				<g>
					<path class="st0" d="M623.8,359c3.2,9.9,5.5,20.3,10.7,29.5c5.9,10.4,14.2,19.5,21.1,29.2c15.2,21.5,28.3,46.7,21.7,73.8
						c-4.9,19.9-31.1,29.7-48.7,21.2c-19.4-9.4-23.9-40.3-13.3-57.2c5.5-8.7,16.8-8.8,26.1-7.2c8.3,1.4,16.4,8.5,19,17.1
						c2.4,8.2,1.2,19.5-7.8,23.7c-15.3,7.3-21.1-7.2-21.1-7.2s5.5,9.2,15.9,5.6c6.5-2.3,10.1-7.5,9-14.2
						c-1.9-11.3-10.4-16.6-21.2-17.7c-5.4-0.5-10.8,0.2-15.2,3.6c-6.6,5-7.2,14.6-6.7,22.1c0.8,12.4,8.7,24,20.7,27.8
						c10.2,3.3,23,0.7,31.7-5.2c13.1-8.8,13-27,10.1-40.8c-3.1-15.5-12.2-29.4-21.1-42.1c-6.9-9.9-14.1-18.5-20-29.1
						c-5.3-9.6-10-22.3-12.3-33C622.3,358.6,623.6,358.4,623.8,359L623.8,359z"/>
				</g>
			</g>
			<g>
				<g>
					<path class="st0" d="M635.5,451.7c-6.9,2.7-14.4,4-19.4,10c-6.1,7.4-7.9,17.1-6.8,26.4c1.9,16,12.2,34.1,26.4,42.2
						c15,8.6,35.4,8.4,50.8,1c16-7.7,26.9-22.5,30.8-39.6c0.1-0.3,0.2,0,0.2,0.2c-3.2,17.8-14.6,34.5-30.7,43
						c-16.9,9-40.8,7.7-56.5-3.4c-14.1-10-23.3-30.6-24.6-47.5c-1.5-20.1,9-38.4,31-36.1C637.7,448,636.3,451.3,635.5,451.7
						L635.5,451.7z"/>
				</g>
			</g>
			<g>
				<circle class="st0" cx="453.9" cy="129.8" r="5.5"/>
			</g>
			<g>
				<circle class="st0" cx="469.1" cy="135.3" r="3.4"/>
			</g>
			<g>
				<circle class="st0" cx="479.1" cy="143.7" r="2.2"/>
			</g>
			<g>
				<g>
					
						<ellipse transform="matrix(0.7435 -0.6687 0.6687 0.7435 -113.871 565.3901)" class="st0" cx="680.1" cy="431.1" rx="5.5" ry="5.5"/>
				</g>
				<g>
					
						<ellipse transform="matrix(0.7436 -0.6687 0.6687 0.7436 -122.3593 573.2463)" class="st0" cx="686.2" cy="446.1" rx="3.4" ry="3.4"/>
				</g>
				<g>
					
						<ellipse transform="matrix(0.7434 -0.6689 0.6689 0.7434 -130.9661 577.1022)" class="st0" cx="686.6" cy="459.2" rx="2.2" ry="2.2"/>
				</g>
			</g>
			<g>
				<g>
					
						<ellipse transform="matrix(0.9661 -0.2581 0.2581 0.9661 -24.5663 167.5045)" class="st0" cx="625.7" cy="177.3" rx="6" ry="6"/>
				</g>
				<g>
					
						<ellipse transform="matrix(0.9661 -0.2581 0.2581 0.9661 -24.357 172.0928)" class="st0" cx="643.3" cy="178.8" rx="3.7" ry="3.7"/>
				</g>
				<g>
					
						<ellipse transform="matrix(0.966 -0.2584 0.2584 0.966 -25.491 175.8728)" class="st0" cx="656.2" cy="184.9" rx="2.4" ry="2.4"/>
				</g>
			</g>
			<g>
				<path class="st0" d="M604.6,144.3c0,0,7.1-16.3,3.6-33.7c-3.4-17.4,7.5-18.5,10.6-8.7C621.9,111.7,618.4,130,604.6,144.3z"/>
			</g>
			<g>
				<path class="st0" d="M611.6,151.9c0,0,20.3-4.7,34-17.6c12.6-11.9,19.5-1.2,12.2,5.7C650.4,146.8,632.7,153,611.6,151.9z"/>
			</g>
			<g>
				<path class="st0" d="M607.6,146.7c0,0,17.9-14.8,25.4-36c7.5-21.1,20.2-15.2,17.2-2.6C647.3,120.8,632,140.2,607.6,146.7z"/>
			</g>
			<g>
				<path class="st1" d="M698.6,379.5"/>
			</g>
			<path class="st0" d="M586.3,172.8c2.9,0,21.8,2.3,29.6,17.2c0,0-14.7-8.9-16.2-9.3s-12.4-1.8-14.6-1.8c-2.2,0-8.5,0.7-9.2,0.7
				s1.3-1.2,1.7-2.2C578.1,176.4,586.3,172.8,586.3,172.8z"/>
			<path class="st0" d="M672,355.1c0,0-29.6-12.9-40.4-44c0,0-6.6-12-8-14.3c0,0,3.2,24.7,27.7,46
				C651.2,342.7,662.4,352.1,672,355.1z"/>
			<path class="st0" d="M630.9,313.3c0,0,17,23.2,50.4,24.2c0,0-24.1-2.7-36.9-15.5c-12.5-12.6-19.1-16.7-19.2-22.5L630.9,313.3z"/>
			<path class="st0" d="M695.2,380.5"/>
			<path class="st0" d="M658.3,157.5c0,0,50.3,14.8,50.9,59.7C709.2,217.2,737.2,177.7,658.3,157.5z"/>
			<path class="st0" d="M602.4,482.5c0,0-4.2-32.2,10.5-42.7c9-6.5,19.8-7.1,28.6,1.2C641.5,441.1,605.5,426.9,602.4,482.5z"/>
		</g>
		<circle class="st0" cx="399.7" cy="122.9" r="6.6"/>
		<circle class="st0" cx="384.7" cy="124.8" r="3.3"/>
		<circle class="st0" cx="375.8" cy="128.1" r="1.6"/>
		<circle class="st0" cx="369.2" cy="132.1" r="0.9"/>
		<g>
			<circle class="st0" cx="414.1" cy="124.1" r="3.3"/>
			<circle class="st0" cx="422.9" cy="127.4" r="1.6"/>
			<circle class="st0" cx="429.5" cy="131.4" r="0.9"/>
		</g>
	</g>
</g>
<rect x="121" y="288.5" class="st2" width="558" height="227"/>
<text transform="matrix(1 0 0 1 197.6952 407.4939)" class="st3 st4 st5">Ki Delícia</text>
<rect x="226" y="451.1" class="st2" width="348" height="90"/>
<text transform="matrix(1 0 0 1 244.7061 518.4742)" class="st6 st7">Receitas</text>
<g>
	<g>
		<circle cx="400" cy="434.9" r="5.4"/>
	</g>
	<polygon points="216.3,432 389,432 389,439 	"/>
	<polygon points="583.7,432.1 411,432.1 411,439.1 	"/>
</g>
</svg>
